<mxfile host="app.diagrams.net" modified="2021-05-23T14:41:48.248Z" agent="5.0 (Windows NT 10.0; Win64; x64) AppleWebKit/537.36 (KHTML, like Gecko) Chrome/90.0.4430.212 Safari/537.36 Edg/90.0.818.66" etag="5XN200Sd5awdvE3eZ2Hz" version="14.7.0" type="github">
  <diagram id="C5RBs43oDa-KdzZeNtuy" name="Page-1">
    <mxGraphModel dx="1422" dy="794" grid="1" gridSize="10" guides="1" tooltips="1" connect="1" arrows="1" fold="1" page="1" pageScale="1" pageWidth="827" pageHeight="1169" math="0" shadow="0">
      <root>
        <mxCell id="WIyWlLk6GJQsqaUBKTNV-0" />
        <mxCell id="WIyWlLk6GJQsqaUBKTNV-1" parent="WIyWlLk6GJQsqaUBKTNV-0" />
        <mxCell id="ilHjckOKYucNb9eBmFh5-6" value="column에서 usage 값이&lt;br&gt;0인 열이 존재하는가?" style="rhombus;whiteSpace=wrap;html=1;" parent="WIyWlLk6GJQsqaUBKTNV-1" vertex="1">
          <mxGeometry x="221.25" y="240" width="195" height="90" as="geometry" />
        </mxCell>
        <mxCell id="ilHjckOKYucNb9eBmFh5-7" value="" style="endArrow=classic;html=1;exitX=0.5;exitY=1;exitDx=0;exitDy=0;" parent="WIyWlLk6GJQsqaUBKTNV-1" source="ilHjckOKYucNb9eBmFh5-6" edge="1">
          <mxGeometry width="50" height="50" relative="1" as="geometry">
            <mxPoint x="557.5" y="510" as="sourcePoint" />
            <mxPoint x="318" y="380" as="targetPoint" />
          </mxGeometry>
        </mxCell>
        <mxCell id="ilHjckOKYucNb9eBmFh5-8" value="" style="endArrow=classic;html=1;exitX=1;exitY=0.5;exitDx=0;exitDy=0;" parent="WIyWlLk6GJQsqaUBKTNV-1" source="ilHjckOKYucNb9eBmFh5-6" edge="1">
          <mxGeometry width="50" height="50" relative="1" as="geometry">
            <mxPoint x="557.5" y="510" as="sourcePoint" />
            <mxPoint x="458" y="520" as="targetPoint" />
            <Array as="points">
              <mxPoint x="458" y="285" />
            </Array>
          </mxGeometry>
        </mxCell>
        <mxCell id="ilHjckOKYucNb9eBmFh5-9" value="YES" style="text;html=1;align=center;verticalAlign=middle;resizable=0;points=[];autosize=1;strokeColor=none;" parent="WIyWlLk6GJQsqaUBKTNV-1" vertex="1">
          <mxGeometry x="267.5" y="340" width="40" height="20" as="geometry" />
        </mxCell>
        <mxCell id="ilHjckOKYucNb9eBmFh5-10" value="NO" style="text;html=1;align=center;verticalAlign=middle;resizable=0;points=[];autosize=1;strokeColor=none;" parent="WIyWlLk6GJQsqaUBKTNV-1" vertex="1">
          <mxGeometry x="412.5" y="400" width="30" height="20" as="geometry" />
        </mxCell>
        <mxCell id="ilHjckOKYucNb9eBmFh5-11" value="해당되는 열들을 전부&lt;br&gt;&amp;nbsp;prime 배열에 복사한다" style="rounded=0;whiteSpace=wrap;html=1;" parent="WIyWlLk6GJQsqaUBKTNV-1" vertex="1">
          <mxGeometry x="237.5" y="380" width="160" height="90" as="geometry" />
        </mxCell>
        <mxCell id="ilHjckOKYucNb9eBmFh5-12" value="" style="endArrow=classic;html=1;exitX=0.5;exitY=1;exitDx=0;exitDy=0;" parent="WIyWlLk6GJQsqaUBKTNV-1" source="ilHjckOKYucNb9eBmFh5-11" edge="1">
          <mxGeometry width="50" height="50" relative="1" as="geometry">
            <mxPoint x="557.5" y="510" as="sourcePoint" />
            <mxPoint x="318" y="520" as="targetPoint" />
          </mxGeometry>
        </mxCell>
        <mxCell id="ilHjckOKYucNb9eBmFh5-13" value="Prime Implicant 찾기 끝" style="rounded=1;whiteSpace=wrap;html=1;" parent="WIyWlLk6GJQsqaUBKTNV-1" vertex="1">
          <mxGeometry x="593.75" y="440" width="162.5" height="70" as="geometry" />
        </mxCell>
        <mxCell id="ilHjckOKYucNb9eBmFh5-18" value="" style="endArrow=classic;html=1;exitX=0.5;exitY=1;exitDx=0;exitDy=0;entryX=0.5;entryY=0;entryDx=0;entryDy=0;" parent="WIyWlLk6GJQsqaUBKTNV-1" edge="1">
          <mxGeometry width="50" height="50" relative="1" as="geometry">
            <mxPoint x="317.5" y="210" as="sourcePoint" />
            <mxPoint x="317.5" y="240" as="targetPoint" />
          </mxGeometry>
        </mxCell>
        <mxCell id="ilHjckOKYucNb9eBmFh5-26" value="" style="endArrow=classic;html=1;exitX=0.5;exitY=1;exitDx=0;exitDy=0;" parent="WIyWlLk6GJQsqaUBKTNV-1" edge="1">
          <mxGeometry width="50" height="50" relative="1" as="geometry">
            <mxPoint x="100.75" y="1080" as="sourcePoint" />
            <mxPoint x="101.25" y="1130" as="targetPoint" />
          </mxGeometry>
        </mxCell>
        <mxCell id="ilHjckOKYucNb9eBmFh5-27" value="reset 함수 끝" style="rounded=1;whiteSpace=wrap;html=1;" parent="WIyWlLk6GJQsqaUBKTNV-1" vertex="1">
          <mxGeometry x="28.25" y="1135" width="146" height="60" as="geometry" />
        </mxCell>
        <mxCell id="ilHjckOKYucNb9eBmFh5-29" value="" style="endArrow=classic;html=1;exitX=1;exitY=0.5;exitDx=0;exitDy=0;" parent="WIyWlLk6GJQsqaUBKTNV-1" source="gcOLoh5SwgWhX1WgK6il-2" edge="1">
          <mxGeometry width="50" height="50" relative="1" as="geometry">
            <mxPoint x="674.5" y="160" as="sourcePoint" />
            <mxPoint x="674.5" y="210" as="targetPoint" />
            <Array as="points">
              <mxPoint x="675" y="170" />
            </Array>
          </mxGeometry>
        </mxCell>
        <mxCell id="ilHjckOKYucNb9eBmFh5-30" value="현재 column을 통쨰로 &lt;br&gt;prime 배열로 옮긴다" style="rounded=0;whiteSpace=wrap;html=1;" parent="WIyWlLk6GJQsqaUBKTNV-1" vertex="1">
          <mxGeometry x="590" y="210" width="170" height="60" as="geometry" />
        </mxCell>
        <mxCell id="ilHjckOKYucNb9eBmFh5-31" value="" style="endArrow=classic;html=1;exitX=0.5;exitY=1;exitDx=0;exitDy=0;" parent="WIyWlLk6GJQsqaUBKTNV-1" source="ilHjckOKYucNb9eBmFh5-30" edge="1">
          <mxGeometry width="50" height="50" relative="1" as="geometry">
            <mxPoint x="680" y="455" as="sourcePoint" />
            <mxPoint x="675" y="340" as="targetPoint" />
          </mxGeometry>
        </mxCell>
        <mxCell id="ilHjckOKYucNb9eBmFh5-34" value="column을 전부 비운다" style="rounded=0;whiteSpace=wrap;html=1;" parent="WIyWlLk6GJQsqaUBKTNV-1" vertex="1">
          <mxGeometry x="277.5" y="520" width="210" height="80" as="geometry" />
        </mxCell>
        <mxCell id="gcOLoh5SwgWhX1WgK6il-0" value="Prime Implicant 찾기 시작" style="rounded=1;whiteSpace=wrap;html=1;" vertex="1" parent="WIyWlLk6GJQsqaUBKTNV-1">
          <mxGeometry x="237.5" y="20" width="162.5" height="80" as="geometry" />
        </mxCell>
        <mxCell id="gcOLoh5SwgWhX1WgK6il-1" value="" style="endArrow=classic;html=1;exitX=0.5;exitY=1;exitDx=0;exitDy=0;" edge="1" parent="WIyWlLk6GJQsqaUBKTNV-1" source="gcOLoh5SwgWhX1WgK6il-0">
          <mxGeometry width="50" height="50" relative="1" as="geometry">
            <mxPoint x="520" y="170" as="sourcePoint" />
            <mxPoint x="319" y="130" as="targetPoint" />
          </mxGeometry>
        </mxCell>
        <mxCell id="gcOLoh5SwgWhX1WgK6il-2" value="현재 column이&lt;br&gt;마지막 column인가?" style="rhombus;whiteSpace=wrap;html=1;" vertex="1" parent="WIyWlLk6GJQsqaUBKTNV-1">
          <mxGeometry x="198.75" y="130" width="240" height="80" as="geometry" />
        </mxCell>
        <mxCell id="gcOLoh5SwgWhX1WgK6il-3" value="YES" style="text;html=1;align=center;verticalAlign=middle;resizable=0;points=[];autosize=1;strokeColor=none;" vertex="1" parent="WIyWlLk6GJQsqaUBKTNV-1">
          <mxGeometry x="447.5" y="140" width="40" height="20" as="geometry" />
        </mxCell>
        <mxCell id="gcOLoh5SwgWhX1WgK6il-4" value="NO" style="text;html=1;align=center;verticalAlign=middle;resizable=0;points=[];autosize=1;strokeColor=none;" vertex="1" parent="WIyWlLk6GJQsqaUBKTNV-1">
          <mxGeometry x="325" y="210" width="30" height="20" as="geometry" />
        </mxCell>
        <mxCell id="gcOLoh5SwgWhX1WgK6il-5" value="" style="endArrow=classic;html=1;exitX=-0.014;exitY=0.625;exitDx=0;exitDy=0;exitPerimeter=0;entryX=0;entryY=0.5;entryDx=0;entryDy=0;" edge="1" parent="WIyWlLk6GJQsqaUBKTNV-1" source="ilHjckOKYucNb9eBmFh5-34" target="gcOLoh5SwgWhX1WgK6il-2">
          <mxGeometry width="50" height="50" relative="1" as="geometry">
            <mxPoint x="130" y="670" as="sourcePoint" />
            <mxPoint x="180" y="620" as="targetPoint" />
            <Array as="points">
              <mxPoint x="70" y="570" />
              <mxPoint x="60" y="170" />
            </Array>
          </mxGeometry>
        </mxCell>
        <mxCell id="gcOLoh5SwgWhX1WgK6il-7" value="prime 배열을 전부 출력한다" style="rounded=0;whiteSpace=wrap;html=1;" vertex="1" parent="WIyWlLk6GJQsqaUBKTNV-1">
          <mxGeometry x="590" y="340" width="170" height="50" as="geometry" />
        </mxCell>
        <mxCell id="gcOLoh5SwgWhX1WgK6il-8" value="" style="endArrow=classic;html=1;exitX=0.5;exitY=1;exitDx=0;exitDy=0;" edge="1" parent="WIyWlLk6GJQsqaUBKTNV-1" source="gcOLoh5SwgWhX1WgK6il-7">
          <mxGeometry width="50" height="50" relative="1" as="geometry">
            <mxPoint x="640" y="490" as="sourcePoint" />
            <mxPoint x="675" y="440" as="targetPoint" />
          </mxGeometry>
        </mxCell>
      </root>
    </mxGraphModel>
  </diagram>
</mxfile>
